<svg width="35" height="35" viewBox="0 0 35 35" fill="none" xmlns="http://www.w3.org/2000/svg">
<path d="M7.29175 26.25V31.7421L9.50112 30.4165L16.4457 26.25H23.3334C24.942 26.25 26.2501 24.9419 26.2501 23.3333V11.6667C26.2501 10.0581 24.942 8.75 23.3334 8.75H5.83341C4.22487 8.75 2.91675 10.0581 2.91675 11.6667V23.3333C2.91675 24.9419 4.22487 26.25 5.83341 26.25H7.29175ZM5.83341 11.6667H23.3334V23.3333H15.6378L10.2084 26.5912V23.3333H5.83341V11.6667Z" fill="#F8F8F8"/>
<path d="M29.1667 2.91666H11.6667C10.0581 2.91666 8.75 4.22478 8.75 5.83332H26.25C27.8585 5.83332 29.1667 7.14145 29.1667 8.74999V20.4167C30.7752 20.4167 32.0833 19.1085 32.0833 17.5V5.83332C32.0833 4.22478 30.7752 2.91666 29.1667 2.91666Z" fill="#F8F8F8"/>
</svg>
