<svg width="40" height="40" viewBox="0 0 40 40" fill="none" xmlns="http://www.w3.org/2000/svg">
<path fill-rule="evenodd" clip-rule="evenodd" d="M10.586 14.586C10.961 14.2111 11.4697 14.0004 12 14.0004C12.5303 14.0004 13.0389 14.2111 13.414 14.586L20 21.172L26.586 14.586C26.9632 14.2217 27.4684 14.0201 27.9928 14.0247C28.5172 14.0292 29.0188 14.2395 29.3896 14.6104C29.7604 14.9812 29.9708 15.4828 29.9753 16.0072C29.9799 16.5316 29.7783 17.0368 29.414 17.414L21.414 25.414C21.0389 25.7889 20.5303 25.9996 20 25.9996C19.4697 25.9996 18.961 25.7889 18.586 25.414L10.586 17.414C10.211 17.0389 10.0004 16.5303 10.0004 16C10.0004 15.4697 10.211 14.9611 10.586 14.586Z" fill="white"/>
</svg>
